Coordinates
version=1
nRows=15
nColumns=46
inDegrees=yes

Units are S.I. units (second, meters, Newtons, ...)
Angles are in degrees.

endheader
time	pelvis_tilt	pelvis_list	pelvis_rotation	pelvis_tx	pelvis_ty	pelvis_tz	bb_angle	bb_tx	bb_ty	bb_tz	hip_flexion_r	hip_adduction_r	hip_rotation_r	knee_angle_r	knee_angle_r_beta	ankle_angle_r	subtalar_angle_r	mtp_angle_r	crank_angle_r	hip_flexion_l	hip_adduction_l	hip_rotation_l	knee_angle_l	knee_angle_l_beta	ankle_angle_l	subtalar_angle_l	mtp_angle_l	crank_angle_l	lumbar_extension	lumbar_bending	lumbar_rotation	arm_flex_r	arm_add_r	arm_rot_r	elbow_flex_r	pro_sup_r	wrist_flex_r	wrist_dev_r	arm_flex_l	arm_add_l	arm_rot_l	elbow_flex_l	pro_sup_l	wrist_flex_l	wrist_dev_l
      7.50000000	    -15.38249422	     -8.13686832	     -5.09486188	      0.21659010	      1.04640978	     -0.26154784	      0.00000000	      0.50000000	      0.00000000	      0.25000000	     81.46829119	      5.71339773	      4.93749658	    116.98584298	      2.04178814	     -6.28633054	     -2.30127568	      0.00000000	      0.00000000	     42.10733706	    -14.42407576	     -2.98384472	     36.01715171	      0.62861788	    -11.40691506	     -1.52644695	      0.00000000	      0.00000000	    -61.45700928	      7.29551448	      3.71754864	     88.89444088	     -6.09935168	     35.57540980	     46.86391511	     46.27528512	      0.00000000	      0.00000000	     84.83462261	    -41.32288917	     50.01637338	     68.04831272	     41.14541155	      0.00000000	      0.00000000
      7.50500000	    -15.62376899	     -7.81614869	     -5.51765629	      0.21695107	      1.04696876	     -0.26076961	      0.00000000	      0.50000000	      0.00000000	      0.25000000	     82.78845792	      6.11953892	      5.53609435	    117.30171715	      2.04730118	     -5.05237603	     -1.29680855	      0.00000000	      0.00000000	     41.32232185	    -14.56173511	     -4.07608658	     35.47940920	      0.61923251	    -12.48083699	     -1.37483187	      0.00000000	      0.00000000	    -61.13340205	      7.22864908	      4.06864758	     89.02077742	     -6.99909146	     37.27628893	     47.23809404	     46.03709835	      0.00000000	      0.00000000	     83.56185349	    -40.05162567	     47.87942717	     66.90929246	     41.28566516	      0.00000000	      0.00000000
      7.51000000	    -15.93417697	     -7.69644411	     -5.79325800	      0.21690401	      1.04753945	     -0.25997920	      0.00000000	      0.50000000	      0.00000000	      0.25000000	     84.09478837	      6.41752415	      5.64543317	    117.39899926	      2.04899908	     -4.15091333	     -1.43771688	      0.00000000	      0.00000000	     40.80519164	    -14.77916540	     -4.76385515	     35.15052133	      0.61349233	    -13.35357319	     -0.98415466	      0.00000000	      0.00000000	    -60.92154545	      7.35688502	      4.26215128	     89.12721300	     -6.96163779	     37.32168760	     47.35807954	     46.01178753	      0.00000000	      0.00000000	     83.29549204	    -40.04786914	     47.86322181	     66.76529235	     41.30128586	      0.00000000	      0.00000000
      7.51500000	    -16.20993734	     -7.49853520	     -6.04559034	      0.21696015	      1.04819338	     -0.25914296	      0.00000000	      0.50000000	      0.00000000	      0.25000000	     85.28072534	      6.69862335	      5.88232779	    117.35455926	      2.04822345	     -3.22494075	     -1.31151445	      0.00000000	      0.00000000	     40.30695914	    -14.92362069	     -5.53339500	     34.99770864	      0.61082525	    -14.13523225	     -0.72449330	      0.00000000	      0.00000000	    -60.69381993	      7.44393751	      4.40468890	     89.20543623	     -6.89871095	     37.42951990	     47.46553910	     45.97986453	      0.00000000	      0.00000000	     82.93908282	    -39.96151497	     47.74488785	     66.55685532	     41.30106154	      0.00000000	      0.00000000
      7.52000000	    -16.42304117	     -7.20261111	     -6.32760141	      0.21695005	      1.04892400	     -0.25825772	      0.00000000	      0.50000000	      0.00000000	      0.25000000	     86.30817452	      6.98093432	      6.25617471	    117.18057703	      2.04518689	     -2.07513791	     -0.63307123	      0.00000000	      0.00000000	     39.80333541	    -15.00575118	     -6.46284785	     35.04868784	      0.61171500	    -14.63170571	     -0.61738570	      0.00000000	      0.00000000	    -60.49534298	      7.33363571	      4.44466699	     89.25747523	     -7.01538348	     37.81654241	     47.47944641	     45.84920685	      0.00000000	      0.00000000	     82.49289405	    -39.60090221	     47.07977684	     66.18923671	     41.30155834	      0.00000000	      0.00000000
      7.52500000	    -16.75464280	     -6.98875126	     -6.45194077	      0.21696622	      1.04955846	     -0.25749688	      0.00000000	      0.50000000	      0.00000000	      0.25000000	     87.31907548	      7.10073004	      6.40666394	    116.86909367	      2.03975048	     -0.90314117	     -0.39598133	      0.00000000	      0.00000000	     39.54988886	    -15.03766040	     -7.03826619	     35.25592357	      0.61533195	    -14.97931618	     -0.48943318	      0.00000000	      0.00000000	    -60.14722764	      7.52223279	      4.71507155	     89.33368578	     -7.49270881	     38.82497872	     47.70309322	     45.27159310	      0.00000000	      0.00000000	     81.42444149	    -38.41250311	     44.83084434	     65.45633210	     41.43913450	      0.00000000	      0.00000000
      7.53000000	    -16.80263673	     -6.81295197	     -6.40013172	      0.21669700	      1.05064484	     -0.25699980	      0.00000000	      0.50000000	      0.00000000	      0.25000000	     87.94261278	      7.06082939	      6.45070024	    116.30892125	      2.02997363	     -0.46094632	     -0.55032041	      0.00000000	      0.00000000	     39.09169950	    -14.92714134	     -7.26828253	     35.56280020	      0.62068795	    -15.08989255	     -0.46206695	      0.00000000	      0.00000000	    -60.20298725	      7.72090357	      4.72733746	     89.36308522	     -7.49281608	     38.81363036	     47.73370255	     45.26183856	      0.00000000	      0.00000000	     81.40547642	    -38.38558153	     44.83302971	     65.44041232	     41.44350980	      0.00000000	      0.00000000
      7.53500000	    -17.08119725	     -6.52623809	     -6.54203903	      0.21660898	      1.05118830	     -0.25578483	      0.00000000	      0.50000000	      0.00000000	      0.25000000	     88.71823081	      7.28057512	      6.57044339	    115.81452355	      2.02134476	      0.92944178	     -0.94490804	      0.00000000	      0.00000000	     38.97569031	    -14.99033691	     -8.00176579	     36.19779508	      0.63177071	    -15.35454631	     -0.51968069	      0.00000000	      0.00000000	    -59.96001828	      7.75636291	      4.74430771	     89.43002347	     -7.41469284	     38.81253828	     47.91107439	     45.22699920	      0.00000000	      0.00000000	     81.21409200	    -38.28861880	     44.80587936	     65.28956704	     41.44619963	      0.00000000	      0.00000000
      7.54000000	    -17.14377707	     -6.29090441	     -6.47624925	      0.21642225	      1.05246370	     -0.25517332	      0.00000000	      0.50000000	      0.00000000	      0.25000000	     89.12171156	      7.24466493	      6.65827046	    114.94943238	      2.00624607	      1.37582237	     -1.05932135	      0.00000000	      0.00000000	     38.60686557	    -14.81298120	     -8.17158286	     36.65118208	      0.63968380	    -15.39698264	     -0.53110922	      0.00000000	      0.00000000	    -59.98456725	      7.90052408	      4.71407925	     89.42311267	     -7.43265793	     38.80087771	     47.93856459	     45.21444018	      0.00000000	      0.00000000	     81.15210397	    -38.23965098	     44.80432136	     65.24954769	     41.44650450	      0.00000000	      0.00000000
      7.54500000	    -17.48591769	     -6.17595264	     -6.55024137	      0.21614356	      1.05273340	     -0.25394704	      0.00000000	      0.50000000	      0.00000000	      0.25000000	     89.70175226	      7.44066173	      6.63950944	    114.10405410	      1.99149143	      2.81097244	     -1.01112035	      0.00000000	      0.00000000	     38.89281551	    -15.00207335	     -8.53317405	     37.92091177	      0.66184477	    -15.07210390	     -0.82592201	      0.00000000	      0.00000000	    -59.55004196	      8.07969405	      5.31084716	     89.45893728	     -7.96231889	     39.27219383	     48.17668676	     44.27767211	      0.00000000	      0.00000000	     80.45473030	    -36.40524213	     43.08040267	     63.56350612	     41.47928710	      0.00000000	      0.00000000
      7.55000000	    -17.51662364	     -5.89159727	     -6.45953557	      0.21590198	      1.05387687	     -0.25303326	      0.00000000	      0.50000000	      0.00000000	      0.25000000	     89.79240704	      7.39321686	      6.71780999	    113.02177925	      1.97260217	      3.74404287	     -1.38801434	      0.00000000	      0.00000000	     38.75945109	    -14.81693524	     -8.66405464	     38.87704000	      0.67853235	    -15.03641952	     -1.10978446	      0.00000000	      0.00000000	    -59.58133068	      8.15633504	      5.21823993	     89.48269553	     -7.95349741	     39.22585582	     48.28028170	     44.22744339	      0.00000000	      0.00000000	     80.39695979	    -36.29766124	     43.09953063	     63.50293167	     41.49791939	      0.00000000	      0.00000000
      7.55500000	    -17.55206110	     -5.67730045	     -6.31363068	      0.21564145	      1.05493629	     -0.25193896	      0.00000000	      0.50000000	      0.00000000	      0.25000000	     89.72872648	      7.31947560	      6.70854313	    111.80778358	      1.95141395	      4.77283463	     -1.75871897	      0.00000000	      0.00000000	     38.80780799	    -14.71633436	     -8.66569377	     40.09438685	      0.69977906	    -14.97215045	     -1.43582621	      0.00000000	      0.00000000	    -59.60386205	      8.27614848	      5.17695416	     89.49716885	     -7.92520090	     39.16056255	     48.36857376	     44.16069208	      0.00000000	      0.00000000	     80.36285997	    -36.16753629	     43.07226465	     63.36289134	     41.50231139	      0.00000000	      0.00000000
      7.56000000	    -17.56769519	     -5.50614901	     -6.12930394	      0.21540548	      1.05604953	     -0.25075949	      0.00000000	      0.50000000	      0.00000000	      0.25000000	     89.46872582	      7.25219130	      6.70056801	    110.43179080	      1.92739835	      5.88171531	     -2.12814504	      0.00000000	      0.00000000	     38.95211129	    -14.62373274	     -8.53046114	     41.47064275	      0.72379926	    -14.85377896	     -1.88378978	      0.00000000	      0.00000000	    -59.65424506	      8.42798188	      5.15044914	     89.50510049	     -7.87116023	     39.09399066	     48.43554857	     44.08556284	      0.00000000	      0.00000000	     80.34114320	    -35.99848401	     43.00487004	     63.16246651	     41.49358904	      0.00000000	      0.00000000
      7.56500000	    -17.53048586	     -5.39400603	     -5.89449497	      0.21518435	      1.05713791	     -0.24961167	      0.00000000	      0.50000000	      0.00000000	      0.25000000	     88.98746065	      7.09486262	      6.62920524	    108.90358514	      1.90072613	      7.09036965	     -2.41694886	      0.00000000	      0.00000000	     39.16373516	    -14.51266647	     -8.16347184	     43.03414150	      0.75108746	    -14.63888989	     -2.50369370	      0.00000000	      0.00000000	    -59.74419726	      8.62446815	      5.14343390	     89.51427351	     -7.78967679	     39.01580699	     48.46370814	     43.98339202	      0.00000000	      0.00000000	     80.36022405	    -35.78739549	     42.86569295	     62.85304238	     41.46653212	      0.00000000	      0.00000000
      7.57000000	    -17.44555858	     -5.14664203	     -5.67727474	      0.21500177	      1.05828390	     -0.24823483	      0.00000000	      0.50000000	      0.00000000	      0.25000000	     88.30876301	      6.94802349	      6.67173992	    107.26046654	      1.87204830	      8.33326674	     -2.78700858	      0.00000000	      0.00000000	     39.38879793	    -14.31089617	     -7.78732035	     44.69919992	      0.78014821	    -14.56461827	     -2.92439498	      0.00000000	      0.00000000	    -59.85355723	      8.64596156	      4.98449665	     89.51347632	     -7.73113762	     38.93370141	     48.46765639	     43.90173447	      0.00000000	      0.00000000	     80.34773565	    -35.54712852	     42.76430792	     62.60043898	     41.44233333	      0.00000000	      0.00000000
